<mxfile host="app.diagrams.net" modified="2022-10-19T11:42:55.028Z" agent="5.0 (X11)" etag="KhPQJt2w6rWwkPGmC5ej" version="20.4.1" type="github" pages="3">
  <diagram id="zR1GOHViF5nGUi84xOHd" name="Страница 1">
    <mxGraphModel dx="868" dy="447" grid="1" gridSize="10" guides="1" tooltips="1" connect="1" arrows="1" fold="1" page="1" pageScale="1" pageWidth="827" pageHeight="1169" math="0" shadow="0">
      <root>
        <mxCell id="0" />
        <mxCell id="1" parent="0" />
        <mxCell id="naSUvjAKfdhwI_I288OE-2" style="edgeStyle=orthogonalEdgeStyle;rounded=0;orthogonalLoop=1;jettySize=auto;html=1;exitX=0.5;exitY=1;exitDx=0;exitDy=0;" parent="1" source="HHRiykc013kWuFr0KWxZ-1" target="naSUvjAKfdhwI_I288OE-3" edge="1">
          <mxGeometry relative="1" as="geometry">
            <mxPoint x="390" y="110" as="targetPoint" />
          </mxGeometry>
        </mxCell>
        <mxCell id="HHRiykc013kWuFr0KWxZ-1" value="start" style="rounded=1;whiteSpace=wrap;html=1;arcSize=47;" parent="1" vertex="1">
          <mxGeometry x="340" y="40" width="100" height="40" as="geometry" />
        </mxCell>
        <mxCell id="naSUvjAKfdhwI_I288OE-1" value="&lt;div&gt;Составить блок-схему &lt;br&gt;&lt;/div&gt;&lt;div&gt;нахождения среднего арифметического из&lt;/div&gt;&lt;div&gt;4 чисел&lt;br&gt;&lt;/div&gt;" style="whiteSpace=wrap;html=1;aspect=fixed;fillColor=#f8cecc;strokeColor=#b85450;" parent="1" vertex="1">
          <mxGeometry x="660" y="20" width="130" height="130" as="geometry" />
        </mxCell>
        <mxCell id="naSUvjAKfdhwI_I288OE-5" value="" style="edgeStyle=orthogonalEdgeStyle;rounded=0;orthogonalLoop=1;jettySize=auto;html=1;" parent="1" source="naSUvjAKfdhwI_I288OE-3" target="naSUvjAKfdhwI_I288OE-4" edge="1">
          <mxGeometry relative="1" as="geometry" />
        </mxCell>
        <mxCell id="naSUvjAKfdhwI_I288OE-3" value="a, b, c, d" style="shape=parallelogram;perimeter=parallelogramPerimeter;whiteSpace=wrap;html=1;fixedSize=1;" parent="1" vertex="1">
          <mxGeometry x="330" y="130" width="120" height="60" as="geometry" />
        </mxCell>
        <mxCell id="naSUvjAKfdhwI_I288OE-7" value="" style="edgeStyle=orthogonalEdgeStyle;rounded=0;orthogonalLoop=1;jettySize=auto;html=1;" parent="1" source="naSUvjAKfdhwI_I288OE-4" target="naSUvjAKfdhwI_I288OE-6" edge="1">
          <mxGeometry relative="1" as="geometry" />
        </mxCell>
        <mxCell id="naSUvjAKfdhwI_I288OE-8" value="" style="edgeStyle=orthogonalEdgeStyle;rounded=0;orthogonalLoop=1;jettySize=auto;html=1;" parent="1" source="naSUvjAKfdhwI_I288OE-4" target="naSUvjAKfdhwI_I288OE-6" edge="1">
          <mxGeometry relative="1" as="geometry" />
        </mxCell>
        <mxCell id="naSUvjAKfdhwI_I288OE-4" value="&lt;div&gt;nums = [a, b, c, d]&lt;/div&gt;&lt;div&gt;i = 0&lt;/div&gt;&lt;div&gt;# length = 4&amp;nbsp; (?)&lt;/div&gt;&lt;div&gt;sum = 0&lt;br&gt;&lt;/div&gt;" style="whiteSpace=wrap;html=1;" parent="1" vertex="1">
          <mxGeometry x="330" y="220" width="120" height="60" as="geometry" />
        </mxCell>
        <mxCell id="naSUvjAKfdhwI_I288OE-11" value="" style="edgeStyle=orthogonalEdgeStyle;rounded=0;orthogonalLoop=1;jettySize=auto;html=1;" parent="1" source="naSUvjAKfdhwI_I288OE-6" target="naSUvjAKfdhwI_I288OE-10" edge="1">
          <mxGeometry relative="1" as="geometry" />
        </mxCell>
        <mxCell id="naSUvjAKfdhwI_I288OE-12" value="" style="edgeStyle=orthogonalEdgeStyle;rounded=0;orthogonalLoop=1;jettySize=auto;html=1;" parent="1" source="naSUvjAKfdhwI_I288OE-6" target="naSUvjAKfdhwI_I288OE-10" edge="1">
          <mxGeometry relative="1" as="geometry" />
        </mxCell>
        <mxCell id="naSUvjAKfdhwI_I288OE-16" style="edgeStyle=orthogonalEdgeStyle;rounded=0;orthogonalLoop=1;jettySize=auto;html=1;exitX=0.5;exitY=1;exitDx=0;exitDy=0;" parent="1" source="naSUvjAKfdhwI_I288OE-6" target="naSUvjAKfdhwI_I288OE-17" edge="1">
          <mxGeometry relative="1" as="geometry">
            <mxPoint x="390" y="460" as="targetPoint" />
            <Array as="points">
              <mxPoint x="390" y="450" />
              <mxPoint x="390" y="450" />
            </Array>
          </mxGeometry>
        </mxCell>
        <mxCell id="naSUvjAKfdhwI_I288OE-6" value="&lt;div&gt;# i == length&lt;/div&gt;&lt;div&gt;nums[i]==null&lt;/div&gt;" style="rhombus;whiteSpace=wrap;html=1;" parent="1" vertex="1">
          <mxGeometry x="340" y="322.5" width="100" height="85" as="geometry" />
        </mxCell>
        <mxCell id="naSUvjAKfdhwI_I288OE-25" style="edgeStyle=orthogonalEdgeStyle;rounded=0;orthogonalLoop=1;jettySize=auto;html=1;exitX=1;exitY=0.5;exitDx=0;exitDy=0;entryX=1;entryY=0.5;entryDx=0;entryDy=0;" parent="1" source="naSUvjAKfdhwI_I288OE-10" target="naSUvjAKfdhwI_I288OE-23" edge="1">
          <mxGeometry relative="1" as="geometry" />
        </mxCell>
        <mxCell id="naSUvjAKfdhwI_I288OE-10" value="midle = sum/length" style="whiteSpace=wrap;html=1;" parent="1" vertex="1">
          <mxGeometry x="490" y="335" width="120" height="60" as="geometry" />
        </mxCell>
        <mxCell id="naSUvjAKfdhwI_I288OE-13" value="true" style="text;html=1;align=center;verticalAlign=middle;resizable=0;points=[];autosize=1;strokeColor=none;fillColor=none;" parent="1" vertex="1">
          <mxGeometry x="430" y="345" width="40" height="30" as="geometry" />
        </mxCell>
        <mxCell id="naSUvjAKfdhwI_I288OE-19" value="" style="edgeStyle=orthogonalEdgeStyle;rounded=0;orthogonalLoop=1;jettySize=auto;html=1;" parent="1" source="naSUvjAKfdhwI_I288OE-17" target="naSUvjAKfdhwI_I288OE-18" edge="1">
          <mxGeometry relative="1" as="geometry" />
        </mxCell>
        <mxCell id="naSUvjAKfdhwI_I288OE-17" value="sum += nums[i]" style="rounded=0;whiteSpace=wrap;html=1;" parent="1" vertex="1">
          <mxGeometry x="330" y="435" width="120" height="60" as="geometry" />
        </mxCell>
        <mxCell id="naSUvjAKfdhwI_I288OE-20" style="edgeStyle=orthogonalEdgeStyle;rounded=0;orthogonalLoop=1;jettySize=auto;html=1;exitX=0.5;exitY=0;exitDx=0;exitDy=0;entryX=0;entryY=0.5;entryDx=0;entryDy=0;" parent="1" source="naSUvjAKfdhwI_I288OE-18" target="naSUvjAKfdhwI_I288OE-6" edge="1">
          <mxGeometry relative="1" as="geometry" />
        </mxCell>
        <mxCell id="naSUvjAKfdhwI_I288OE-18" value="i += 1" style="rounded=0;whiteSpace=wrap;html=1;" parent="1" vertex="1">
          <mxGeometry x="170" y="435" width="120" height="60" as="geometry" />
        </mxCell>
        <mxCell id="naSUvjAKfdhwI_I288OE-21" value="false" style="text;html=1;strokeColor=none;fillColor=none;align=center;verticalAlign=middle;whiteSpace=wrap;rounded=0;" parent="1" vertex="1">
          <mxGeometry x="380" y="405" width="60" height="30" as="geometry" />
        </mxCell>
        <mxCell id="naSUvjAKfdhwI_I288OE-22" value="if" style="text;html=1;strokeColor=none;fillColor=none;align=center;verticalAlign=middle;whiteSpace=wrap;rounded=0;" parent="1" vertex="1">
          <mxGeometry x="370" y="290" width="60" height="30" as="geometry" />
        </mxCell>
        <mxCell id="naSUvjAKfdhwI_I288OE-27" style="edgeStyle=orthogonalEdgeStyle;rounded=0;orthogonalLoop=1;jettySize=auto;html=1;exitX=0.5;exitY=1;exitDx=0;exitDy=0;entryX=0.5;entryY=0;entryDx=0;entryDy=0;" parent="1" source="naSUvjAKfdhwI_I288OE-23" target="naSUvjAKfdhwI_I288OE-26" edge="1">
          <mxGeometry relative="1" as="geometry" />
        </mxCell>
        <mxCell id="naSUvjAKfdhwI_I288OE-23" value="return midle" style="rounded=0;whiteSpace=wrap;html=1;" parent="1" vertex="1">
          <mxGeometry x="490" y="435" width="120" height="60" as="geometry" />
        </mxCell>
        <mxCell id="naSUvjAKfdhwI_I288OE-26" value="end" style="rounded=1;whiteSpace=wrap;html=1;arcSize=43;" parent="1" vertex="1">
          <mxGeometry x="330" y="540" width="120" height="40" as="geometry" />
        </mxCell>
        <mxCell id="naSUvjAKfdhwI_I288OE-28" value="&lt;div&gt;Я не знаю,допустимо ли &lt;br&gt;&lt;/div&gt;&lt;div&gt;использование конструкции&lt;/div&gt;&lt;div&gt;&lt;b&gt;length&lt;/b&gt;, поэтому предлагаю&lt;/div&gt;&lt;div&gt;запасной вариант.&lt;br&gt;&lt;/div&gt;" style="ellipse;shape=cloud;whiteSpace=wrap;html=1;" parent="1" vertex="1">
          <mxGeometry x="70" y="247.5" width="260" height="115" as="geometry" />
        </mxCell>
      </root>
    </mxGraphModel>
  </diagram>
  <diagram id="v04de2K5OA2hz6T1aBHf" name="Страница 2">
    <mxGraphModel dx="868" dy="1616" grid="1" gridSize="10" guides="1" tooltips="1" connect="1" arrows="1" fold="1" page="1" pageScale="1" pageWidth="827" pageHeight="1169" math="0" shadow="0">
      <root>
        <mxCell id="0" />
        <mxCell id="1" parent="0" />
        <mxCell id="a5BwHA0AOxb1Xxlla8Du-7" value="" style="rounded=0;whiteSpace=wrap;html=1;fillColor=none;" parent="1" vertex="1">
          <mxGeometry x="320" y="-300" width="330" height="160" as="geometry" />
        </mxCell>
        <mxCell id="a5BwHA0AOxb1Xxlla8Du-14" style="edgeStyle=orthogonalEdgeStyle;rounded=0;orthogonalLoop=1;jettySize=auto;html=1;exitX=0.5;exitY=1;exitDx=0;exitDy=0;entryX=0.5;entryY=0;entryDx=0;entryDy=0;fontSize=12;" parent="1" source="a5BwHA0AOxb1Xxlla8Du-5" target="a5BwHA0AOxb1Xxlla8Du-12" edge="1">
          <mxGeometry relative="1" as="geometry" />
        </mxCell>
        <mxCell id="a5BwHA0AOxb1Xxlla8Du-5" value="" style="rounded=0;whiteSpace=wrap;html=1;fillColor=none;" parent="1" vertex="1">
          <mxGeometry x="250" y="-310" width="410" height="190" as="geometry" />
        </mxCell>
        <mxCell id="h9jbJWUTivrVjk0-H4qY-3" style="edgeStyle=orthogonalEdgeStyle;rounded=0;orthogonalLoop=1;jettySize=auto;html=1;exitX=0.5;exitY=1;exitDx=0;exitDy=0;entryX=0.5;entryY=0;entryDx=0;entryDy=0;" parent="1" source="h9jbJWUTivrVjk0-H4qY-1" target="h9jbJWUTivrVjk0-H4qY-2" edge="1">
          <mxGeometry relative="1" as="geometry" />
        </mxCell>
        <mxCell id="h9jbJWUTivrVjk0-H4qY-1" value="start" style="rounded=1;whiteSpace=wrap;html=1;arcSize=47;" parent="1" vertex="1">
          <mxGeometry x="349" y="-420" width="130" height="30" as="geometry" />
        </mxCell>
        <mxCell id="a5BwHA0AOxb1Xxlla8Du-3" style="edgeStyle=orthogonalEdgeStyle;rounded=0;orthogonalLoop=1;jettySize=auto;html=1;exitX=0.5;exitY=1;exitDx=0;exitDy=0;entryX=0.5;entryY=0;entryDx=0;entryDy=0;" parent="1" source="h9jbJWUTivrVjk0-H4qY-2" target="h9jbJWUTivrVjk0-H4qY-5" edge="1">
          <mxGeometry relative="1" as="geometry" />
        </mxCell>
        <mxCell id="h9jbJWUTivrVjk0-H4qY-2" value="n " style="shape=parallelogram;perimeter=parallelogramPerimeter;whiteSpace=wrap;html=1;fixedSize=1;" parent="1" vertex="1">
          <mxGeometry x="351" y="-360" width="126" height="20" as="geometry" />
        </mxCell>
        <mxCell id="h9jbJWUTivrVjk0-H4qY-4" value="найти n!" style="rounded=0;whiteSpace=wrap;html=1;fillColor=#f8cecc;strokeColor=#b85450;" parent="1" vertex="1">
          <mxGeometry x="540" y="-420" width="80" height="30" as="geometry" />
        </mxCell>
        <mxCell id="h9jbJWUTivrVjk0-H4qY-7" style="edgeStyle=orthogonalEdgeStyle;rounded=0;orthogonalLoop=1;jettySize=auto;html=1;exitX=1;exitY=0.5;exitDx=0;exitDy=0;entryX=0;entryY=0.5;entryDx=0;entryDy=0;startArrow=none;" parent="1" source="h9jbJWUTivrVjk0-H4qY-8" target="h9jbJWUTivrVjk0-H4qY-6" edge="1">
          <mxGeometry relative="1" as="geometry" />
        </mxCell>
        <mxCell id="h9jbJWUTivrVjk0-H4qY-5" value="n == 0" style="rhombus;whiteSpace=wrap;html=1;" parent="1" vertex="1">
          <mxGeometry x="374" y="-270" width="80" height="80" as="geometry" />
        </mxCell>
        <mxCell id="a5BwHA0AOxb1Xxlla8Du-13" style="edgeStyle=orthogonalEdgeStyle;rounded=0;orthogonalLoop=1;jettySize=auto;html=1;exitX=1;exitY=0.5;exitDx=0;exitDy=0;entryX=1;entryY=0.5;entryDx=0;entryDy=0;fontSize=12;" parent="1" source="h9jbJWUTivrVjk0-H4qY-6" target="a5BwHA0AOxb1Xxlla8Du-12" edge="1">
          <mxGeometry relative="1" as="geometry">
            <Array as="points">
              <mxPoint x="690" y="-230" />
              <mxPoint x="690" y="-30" />
            </Array>
          </mxGeometry>
        </mxCell>
        <mxCell id="h9jbJWUTivrVjk0-H4qY-6" value="n! = 1" style="rounded=0;whiteSpace=wrap;html=1;" parent="1" vertex="1">
          <mxGeometry x="524.5" y="-245" width="111" height="30" as="geometry" />
        </mxCell>
        <mxCell id="h9jbJWUTivrVjk0-H4qY-8" value="true" style="text;html=1;align=center;verticalAlign=middle;whiteSpace=wrap;rounded=0;fillColor=none;" parent="1" vertex="1">
          <mxGeometry x="470" y="-245" width="30" height="30" as="geometry" />
        </mxCell>
        <mxCell id="h9jbJWUTivrVjk0-H4qY-9" value="" style="edgeStyle=orthogonalEdgeStyle;rounded=0;orthogonalLoop=1;jettySize=auto;html=1;exitX=1;exitY=0.5;exitDx=0;exitDy=0;entryX=0;entryY=0.5;entryDx=0;entryDy=0;endArrow=none;" parent="1" source="h9jbJWUTivrVjk0-H4qY-5" target="h9jbJWUTivrVjk0-H4qY-8" edge="1">
          <mxGeometry relative="1" as="geometry">
            <mxPoint x="454" y="-230" as="sourcePoint" />
            <mxPoint x="520" y="-230" as="targetPoint" />
          </mxGeometry>
        </mxCell>
        <mxCell id="a5BwHA0AOxb1Xxlla8Du-6" style="edgeStyle=orthogonalEdgeStyle;rounded=0;orthogonalLoop=1;jettySize=auto;html=1;exitX=0.5;exitY=1;exitDx=0;exitDy=0;entryX=0.5;entryY=1;entryDx=0;entryDy=0;" parent="1" source="h9jbJWUTivrVjk0-H4qY-12" target="a5BwHA0AOxb1Xxlla8Du-9" edge="1">
          <mxGeometry relative="1" as="geometry">
            <Array as="points">
              <mxPoint x="414" y="-90" />
              <mxPoint x="160" y="-90" />
            </Array>
          </mxGeometry>
        </mxCell>
        <mxCell id="h9jbJWUTivrVjk0-H4qY-12" value="false" style="text;html=1;strokeColor=none;fillColor=none;align=center;verticalAlign=middle;whiteSpace=wrap;rounded=0;" parent="1" vertex="1">
          <mxGeometry x="384" y="-180" width="60" height="20" as="geometry" />
        </mxCell>
        <mxCell id="h9jbJWUTivrVjk0-H4qY-13" value="" style="edgeStyle=orthogonalEdgeStyle;rounded=0;orthogonalLoop=1;jettySize=auto;html=1;exitX=0.5;exitY=1;exitDx=0;exitDy=0;entryX=0.5;entryY=0;entryDx=0;entryDy=0;endArrow=none;" parent="1" source="h9jbJWUTivrVjk0-H4qY-5" target="h9jbJWUTivrVjk0-H4qY-12" edge="1">
          <mxGeometry relative="1" as="geometry">
            <mxPoint x="414" y="-190" as="sourcePoint" />
            <mxPoint x="414" y="-150" as="targetPoint" />
          </mxGeometry>
        </mxCell>
        <mxCell id="a5BwHA0AOxb1Xxlla8Du-8" value="n*" style="text;html=1;strokeColor=none;fillColor=none;align=center;verticalAlign=middle;whiteSpace=wrap;rounded=0;fontSize=16;" parent="1" vertex="1">
          <mxGeometry x="250" y="-235" width="60" height="30" as="geometry" />
        </mxCell>
        <mxCell id="a5BwHA0AOxb1Xxlla8Du-10" style="edgeStyle=orthogonalEdgeStyle;rounded=0;orthogonalLoop=1;jettySize=auto;html=1;exitX=0.5;exitY=0;exitDx=0;exitDy=0;fontSize=12;" parent="1" source="a5BwHA0AOxb1Xxlla8Du-9" edge="1">
          <mxGeometry relative="1" as="geometry">
            <mxPoint x="414" y="-330" as="targetPoint" />
            <Array as="points">
              <mxPoint x="160" y="-330" />
            </Array>
          </mxGeometry>
        </mxCell>
        <mxCell id="a5BwHA0AOxb1Xxlla8Du-9" value="&lt;font style=&quot;font-size: 12px;&quot;&gt;n-1&lt;/font&gt;" style="rounded=0;whiteSpace=wrap;html=1;fontSize=16;fillColor=none;" parent="1" vertex="1">
          <mxGeometry x="100" y="-250" width="120" height="60" as="geometry" />
        </mxCell>
        <mxCell id="a5BwHA0AOxb1Xxlla8Du-12" value="end" style="rounded=1;whiteSpace=wrap;html=1;fontSize=12;fillColor=none;arcSize=50;" parent="1" vertex="1">
          <mxGeometry x="397.5" y="-50" width="115" height="40" as="geometry" />
        </mxCell>
        <mxCell id="a5BwHA0AOxb1Xxlla8Du-15" value="&lt;div&gt;Вариант 2&lt;/div&gt;самый адекватный" style="rounded=0;whiteSpace=wrap;html=1;fontSize=12;fillColor=#f8cecc;strokeColor=#b85450;" parent="1" vertex="1">
          <mxGeometry x="650" y="20" width="120" height="60" as="geometry" />
        </mxCell>
        <mxCell id="a5BwHA0AOxb1Xxlla8Du-19" style="edgeStyle=orthogonalEdgeStyle;rounded=0;orthogonalLoop=1;jettySize=auto;html=1;exitX=0.5;exitY=1;exitDx=0;exitDy=0;entryX=0.5;entryY=0;entryDx=0;entryDy=0;fontSize=12;" parent="1" source="a5BwHA0AOxb1Xxlla8Du-16" target="a5BwHA0AOxb1Xxlla8Du-18" edge="1">
          <mxGeometry relative="1" as="geometry" />
        </mxCell>
        <mxCell id="a5BwHA0AOxb1Xxlla8Du-16" value="start" style="rounded=1;whiteSpace=wrap;html=1;fontSize=12;fillColor=none;arcSize=43;" parent="1" vertex="1">
          <mxGeometry x="368" y="20" width="96" height="40" as="geometry" />
        </mxCell>
        <mxCell id="a5BwHA0AOxb1Xxlla8Du-25" style="edgeStyle=orthogonalEdgeStyle;rounded=0;orthogonalLoop=1;jettySize=auto;html=1;exitX=0;exitY=0.5;exitDx=0;exitDy=0;fontSize=12;entryX=0.5;entryY=1;entryDx=0;entryDy=0;" parent="1" source="a5BwHA0AOxb1Xxlla8Du-17" target="a5BwHA0AOxb1Xxlla8Du-28" edge="1">
          <mxGeometry relative="1" as="geometry">
            <mxPoint x="250" y="290" as="targetPoint" />
          </mxGeometry>
        </mxCell>
        <mxCell id="a5BwHA0AOxb1Xxlla8Du-17" value="fn *= n" style="rounded=0;whiteSpace=wrap;html=1;fontSize=12;fillColor=none;" parent="1" vertex="1">
          <mxGeometry x="357" y="370" width="114" height="30" as="geometry" />
        </mxCell>
        <mxCell id="a5BwHA0AOxb1Xxlla8Du-23" style="edgeStyle=orthogonalEdgeStyle;rounded=0;orthogonalLoop=1;jettySize=auto;html=1;exitX=0.5;exitY=1;exitDx=0;exitDy=0;fontSize=12;entryX=0.5;entryY=0;entryDx=0;entryDy=0;" parent="1" source="a5BwHA0AOxb1Xxlla8Du-18" target="a5BwHA0AOxb1Xxlla8Du-26" edge="1">
          <mxGeometry relative="1" as="geometry">
            <mxPoint x="414" y="185" as="targetPoint" />
          </mxGeometry>
        </mxCell>
        <mxCell id="a5BwHA0AOxb1Xxlla8Du-18" value="n" style="shape=parallelogram;perimeter=parallelogramPerimeter;whiteSpace=wrap;html=1;fixedSize=1;fontSize=12;fillColor=none;" parent="1" vertex="1">
          <mxGeometry x="360" y="110" width="111" height="30" as="geometry" />
        </mxCell>
        <mxCell id="a5BwHA0AOxb1Xxlla8Du-22" value="" style="edgeStyle=orthogonalEdgeStyle;rounded=0;orthogonalLoop=1;jettySize=auto;html=1;fontSize=12;" parent="1" source="a5BwHA0AOxb1Xxlla8Du-20" target="a5BwHA0AOxb1Xxlla8Du-21" edge="1">
          <mxGeometry relative="1" as="geometry" />
        </mxCell>
        <mxCell id="a5BwHA0AOxb1Xxlla8Du-24" style="edgeStyle=orthogonalEdgeStyle;rounded=0;orthogonalLoop=1;jettySize=auto;html=1;exitX=0.5;exitY=1;exitDx=0;exitDy=0;entryX=0.5;entryY=0;entryDx=0;entryDy=0;fontSize=12;startArrow=none;" parent="1" source="a5BwHA0AOxb1Xxlla8Du-32" target="a5BwHA0AOxb1Xxlla8Du-17" edge="1">
          <mxGeometry relative="1" as="geometry" />
        </mxCell>
        <mxCell id="a5BwHA0AOxb1Xxlla8Du-20" value="n &amp;lt;= 1" style="rhombus;whiteSpace=wrap;html=1;fontSize=12;fillColor=none;" parent="1" vertex="1">
          <mxGeometry x="374" y="230" width="80" height="80" as="geometry" />
        </mxCell>
        <mxCell id="IxwNgQlCGh2BCHeYVvEQ-4" style="edgeStyle=orthogonalEdgeStyle;rounded=0;orthogonalLoop=1;jettySize=auto;html=1;exitX=0.5;exitY=1;exitDx=0;exitDy=0;entryX=0.5;entryY=0;entryDx=0;entryDy=0;" parent="1" source="a5BwHA0AOxb1Xxlla8Du-21" target="IxwNgQlCGh2BCHeYVvEQ-3" edge="1">
          <mxGeometry relative="1" as="geometry" />
        </mxCell>
        <mxCell id="a5BwHA0AOxb1Xxlla8Du-21" value="fn *= 1" style="whiteSpace=wrap;html=1;fillColor=none;" parent="1" vertex="1">
          <mxGeometry x="511" y="240" width="120" height="60" as="geometry" />
        </mxCell>
        <mxCell id="a5BwHA0AOxb1Xxlla8Du-27" style="edgeStyle=orthogonalEdgeStyle;rounded=0;orthogonalLoop=1;jettySize=auto;html=1;fontSize=12;" parent="1" source="a5BwHA0AOxb1Xxlla8Du-26" target="a5BwHA0AOxb1Xxlla8Du-20" edge="1">
          <mxGeometry relative="1" as="geometry" />
        </mxCell>
        <mxCell id="a5BwHA0AOxb1Xxlla8Du-26" value="nf = 1" style="rounded=0;whiteSpace=wrap;html=1;fontSize=12;fillColor=none;" parent="1" vertex="1">
          <mxGeometry x="356" y="180" width="116" height="20" as="geometry" />
        </mxCell>
        <mxCell id="a5BwHA0AOxb1Xxlla8Du-29" style="edgeStyle=orthogonalEdgeStyle;rounded=0;orthogonalLoop=1;jettySize=auto;html=1;exitX=1;exitY=0.5;exitDx=0;exitDy=0;entryX=0;entryY=0.5;entryDx=0;entryDy=0;fontSize=12;" parent="1" source="a5BwHA0AOxb1Xxlla8Du-28" target="a5BwHA0AOxb1Xxlla8Du-20" edge="1">
          <mxGeometry relative="1" as="geometry" />
        </mxCell>
        <mxCell id="a5BwHA0AOxb1Xxlla8Du-28" value="n -1" style="rounded=0;whiteSpace=wrap;html=1;fontSize=12;fillColor=none;" parent="1" vertex="1">
          <mxGeometry x="210" y="255" width="80" height="30" as="geometry" />
        </mxCell>
        <mxCell id="a5BwHA0AOxb1Xxlla8Du-30" value="if" style="text;html=1;strokeColor=none;fillColor=none;align=center;verticalAlign=middle;whiteSpace=wrap;rounded=0;fontSize=12;" parent="1" vertex="1">
          <mxGeometry x="404" y="210" width="40" height="20" as="geometry" />
        </mxCell>
        <mxCell id="a5BwHA0AOxb1Xxlla8Du-31" value="true" style="text;html=1;strokeColor=none;fillColor=none;align=center;verticalAlign=middle;whiteSpace=wrap;rounded=0;fontSize=12;" parent="1" vertex="1">
          <mxGeometry x="444" y="250" width="60" height="30" as="geometry" />
        </mxCell>
        <mxCell id="a5BwHA0AOxb1Xxlla8Du-32" value="false" style="text;html=1;strokeColor=none;fillColor=none;align=center;verticalAlign=middle;whiteSpace=wrap;rounded=0;fontSize=12;" parent="1" vertex="1">
          <mxGeometry x="391" y="330" width="46" height="20" as="geometry" />
        </mxCell>
        <mxCell id="a5BwHA0AOxb1Xxlla8Du-33" value="" style="edgeStyle=orthogonalEdgeStyle;rounded=0;orthogonalLoop=1;jettySize=auto;html=1;exitX=0.5;exitY=1;exitDx=0;exitDy=0;entryX=0.5;entryY=0;entryDx=0;entryDy=0;fontSize=12;endArrow=none;" parent="1" source="a5BwHA0AOxb1Xxlla8Du-20" target="a5BwHA0AOxb1Xxlla8Du-32" edge="1">
          <mxGeometry relative="1" as="geometry">
            <mxPoint x="414" y="310" as="sourcePoint" />
            <mxPoint x="414" y="370" as="targetPoint" />
          </mxGeometry>
        </mxCell>
        <mxCell id="IxwNgQlCGh2BCHeYVvEQ-1" value="&lt;div&gt;вариант 3&lt;/div&gt;" style="rounded=0;whiteSpace=wrap;html=1;fillColor=#f8cecc;strokeColor=#b85450;" parent="1" vertex="1">
          <mxGeometry x="631" y="600" width="120" height="60" as="geometry" />
        </mxCell>
        <mxCell id="IxwNgQlCGh2BCHeYVvEQ-3" value="end" style="rounded=1;whiteSpace=wrap;html=1;arcSize=50;" parent="1" vertex="1">
          <mxGeometry x="511" y="367.5" width="120" height="35" as="geometry" />
        </mxCell>
        <mxCell id="IxwNgQlCGh2BCHeYVvEQ-5" style="edgeStyle=orthogonalEdgeStyle;rounded=0;orthogonalLoop=1;jettySize=auto;html=1;exitX=0.5;exitY=1;exitDx=0;exitDy=0;entryX=0.5;entryY=0;entryDx=0;entryDy=0;fontSize=12;" parent="1" edge="1">
          <mxGeometry relative="1" as="geometry">
            <mxPoint x="402.5" y="640" as="sourcePoint" />
            <mxPoint x="405" y="690" as="targetPoint" />
            <Array as="points">
              <mxPoint x="405.5" y="640" />
              <mxPoint x="405.5" y="665" />
            </Array>
          </mxGeometry>
        </mxCell>
        <mxCell id="IxwNgQlCGh2BCHeYVvEQ-6" value="start" style="rounded=1;whiteSpace=wrap;html=1;fontSize=12;fillColor=none;arcSize=43;" parent="1" vertex="1">
          <mxGeometry x="356" y="600" width="96" height="40" as="geometry" />
        </mxCell>
        <mxCell id="IxwNgQlCGh2BCHeYVvEQ-9" value="" style="edgeStyle=orthogonalEdgeStyle;rounded=0;orthogonalLoop=1;jettySize=auto;html=1;" parent="1" source="IxwNgQlCGh2BCHeYVvEQ-7" target="IxwNgQlCGh2BCHeYVvEQ-8" edge="1">
          <mxGeometry relative="1" as="geometry" />
        </mxCell>
        <mxCell id="IxwNgQlCGh2BCHeYVvEQ-7" value="n" style="shape=parallelogram;perimeter=parallelogramPerimeter;whiteSpace=wrap;html=1;fixedSize=1;fontSize=12;fillColor=none;" parent="1" vertex="1">
          <mxGeometry x="351" y="690" width="111" height="30" as="geometry" />
        </mxCell>
        <mxCell id="IxwNgQlCGh2BCHeYVvEQ-11" value="" style="edgeStyle=orthogonalEdgeStyle;rounded=0;orthogonalLoop=1;jettySize=auto;html=1;" parent="1" source="IxwNgQlCGh2BCHeYVvEQ-8" edge="1">
          <mxGeometry relative="1" as="geometry">
            <mxPoint x="406.5" y="840" as="targetPoint" />
          </mxGeometry>
        </mxCell>
        <mxCell id="IxwNgQlCGh2BCHeYVvEQ-8" value="&lt;div&gt;arrN = []&lt;/div&gt;&lt;div&gt;i = 0&lt;br&gt;&lt;/div&gt;" style="whiteSpace=wrap;html=1;fillColor=none;" parent="1" vertex="1">
          <mxGeometry x="333.25" y="770" width="146.5" height="40" as="geometry" />
        </mxCell>
        <mxCell id="IxwNgQlCGh2BCHeYVvEQ-14" style="edgeStyle=orthogonalEdgeStyle;rounded=0;orthogonalLoop=1;jettySize=auto;html=1;exitX=0.5;exitY=1;exitDx=0;exitDy=0;entryX=0.5;entryY=0;entryDx=0;entryDy=0;" parent="1" source="IxwNgQlCGh2BCHeYVvEQ-12" target="IxwNgQlCGh2BCHeYVvEQ-13" edge="1">
          <mxGeometry relative="1" as="geometry" />
        </mxCell>
        <mxCell id="IxwNgQlCGh2BCHeYVvEQ-19" style="edgeStyle=orthogonalEdgeStyle;rounded=0;orthogonalLoop=1;jettySize=auto;html=1;exitX=1;exitY=0.5;exitDx=0;exitDy=0;entryX=1;entryY=0.5;entryDx=0;entryDy=0;" parent="1" source="IxwNgQlCGh2BCHeYVvEQ-12" target="IxwNgQlCGh2BCHeYVvEQ-18" edge="1">
          <mxGeometry relative="1" as="geometry">
            <Array as="points">
              <mxPoint x="530" y="880" />
              <mxPoint x="530" y="1070" />
            </Array>
          </mxGeometry>
        </mxCell>
        <mxCell id="IxwNgQlCGh2BCHeYVvEQ-12" value="arrN[i]==n" style="rhombus;whiteSpace=wrap;html=1;" parent="1" vertex="1">
          <mxGeometry x="366.5" y="840" width="80" height="80" as="geometry" />
        </mxCell>
        <mxCell id="IxwNgQlCGh2BCHeYVvEQ-16" style="edgeStyle=orthogonalEdgeStyle;rounded=0;orthogonalLoop=1;jettySize=auto;html=1;exitX=0;exitY=0.5;exitDx=0;exitDy=0;entryX=1;entryY=0.5;entryDx=0;entryDy=0;" parent="1" source="IxwNgQlCGh2BCHeYVvEQ-13" target="IxwNgQlCGh2BCHeYVvEQ-15" edge="1">
          <mxGeometry relative="1" as="geometry" />
        </mxCell>
        <mxCell id="IxwNgQlCGh2BCHeYVvEQ-13" value="&lt;div&gt;arrN[i] +=1&lt;/div&gt;" style="rounded=0;whiteSpace=wrap;html=1;" parent="1" vertex="1">
          <mxGeometry x="346.5" y="950" width="120" height="60" as="geometry" />
        </mxCell>
        <mxCell id="IxwNgQlCGh2BCHeYVvEQ-17" style="edgeStyle=orthogonalEdgeStyle;rounded=0;orthogonalLoop=1;jettySize=auto;html=1;exitX=0.5;exitY=0;exitDx=0;exitDy=0;entryX=0;entryY=0.5;entryDx=0;entryDy=0;" parent="1" source="IxwNgQlCGh2BCHeYVvEQ-15" target="IxwNgQlCGh2BCHeYVvEQ-12" edge="1">
          <mxGeometry relative="1" as="geometry" />
        </mxCell>
        <mxCell id="IxwNgQlCGh2BCHeYVvEQ-15" value="&lt;div&gt;добавляем элемент&lt;br&gt;&lt;/div&gt;&lt;div&gt;arrN[i += 1]=arrN[i]&lt;/div&gt;" style="rounded=0;whiteSpace=wrap;html=1;" parent="1" vertex="1">
          <mxGeometry x="180" y="950" width="120" height="60" as="geometry" />
        </mxCell>
        <mxCell id="IxwNgQlCGh2BCHeYVvEQ-22" style="edgeStyle=orthogonalEdgeStyle;rounded=0;orthogonalLoop=1;jettySize=auto;html=1;exitX=0.5;exitY=1;exitDx=0;exitDy=0;entryX=0.5;entryY=0;entryDx=0;entryDy=0;" parent="1" source="IxwNgQlCGh2BCHeYVvEQ-18" target="IxwNgQlCGh2BCHeYVvEQ-21" edge="1">
          <mxGeometry relative="1" as="geometry" />
        </mxCell>
        <mxCell id="IxwNgQlCGh2BCHeYVvEQ-18" value="&lt;div&gt;i =0&lt;/div&gt;&lt;div&gt;n = n&lt;/div&gt;&lt;div&gt;factorial = 1&lt;br&gt;&lt;/div&gt;" style="rounded=0;whiteSpace=wrap;html=1;" parent="1" vertex="1">
          <mxGeometry x="346.5" y="1040" width="120" height="60" as="geometry" />
        </mxCell>
        <mxCell id="IxwNgQlCGh2BCHeYVvEQ-20" value="# arrN = [1,2,...,(n-2),(n-1),n]" style="rounded=0;whiteSpace=wrap;html=1;" parent="1" vertex="1">
          <mxGeometry x="512.5" y="900" width="173" height="30" as="geometry" />
        </mxCell>
        <mxCell id="IxwNgQlCGh2BCHeYVvEQ-24" value="" style="edgeStyle=orthogonalEdgeStyle;rounded=0;orthogonalLoop=1;jettySize=auto;html=1;" parent="1" source="IxwNgQlCGh2BCHeYVvEQ-21" target="IxwNgQlCGh2BCHeYVvEQ-23" edge="1">
          <mxGeometry relative="1" as="geometry" />
        </mxCell>
        <mxCell id="IxwNgQlCGh2BCHeYVvEQ-26" style="edgeStyle=orthogonalEdgeStyle;rounded=0;orthogonalLoop=1;jettySize=auto;html=1;exitX=0.5;exitY=1;exitDx=0;exitDy=0;entryX=0.5;entryY=0;entryDx=0;entryDy=0;" parent="1" source="IxwNgQlCGh2BCHeYVvEQ-21" target="IxwNgQlCGh2BCHeYVvEQ-25" edge="1">
          <mxGeometry relative="1" as="geometry" />
        </mxCell>
        <mxCell id="IxwNgQlCGh2BCHeYVvEQ-21" value="arrN[i] == n" style="rhombus;whiteSpace=wrap;html=1;" parent="1" vertex="1">
          <mxGeometry x="366.5" y="1140" width="80" height="80" as="geometry" />
        </mxCell>
        <mxCell id="IxwNgQlCGh2BCHeYVvEQ-31" style="edgeStyle=orthogonalEdgeStyle;rounded=0;orthogonalLoop=1;jettySize=auto;html=1;exitX=0.5;exitY=1;exitDx=0;exitDy=0;" parent="1" source="IxwNgQlCGh2BCHeYVvEQ-23" target="IxwNgQlCGh2BCHeYVvEQ-30" edge="1">
          <mxGeometry relative="1" as="geometry" />
        </mxCell>
        <mxCell id="IxwNgQlCGh2BCHeYVvEQ-23" value="return factorial" style="whiteSpace=wrap;html=1;" parent="1" vertex="1">
          <mxGeometry x="506.5" y="1150" width="120" height="60" as="geometry" />
        </mxCell>
        <mxCell id="IxwNgQlCGh2BCHeYVvEQ-28" style="edgeStyle=orthogonalEdgeStyle;rounded=0;orthogonalLoop=1;jettySize=auto;html=1;exitX=0;exitY=0.5;exitDx=0;exitDy=0;" parent="1" source="IxwNgQlCGh2BCHeYVvEQ-25" target="IxwNgQlCGh2BCHeYVvEQ-27" edge="1">
          <mxGeometry relative="1" as="geometry" />
        </mxCell>
        <mxCell id="IxwNgQlCGh2BCHeYVvEQ-25" value="factorial *= arrN[i]" style="rounded=0;whiteSpace=wrap;html=1;" parent="1" vertex="1">
          <mxGeometry x="346.5" y="1280" width="120" height="60" as="geometry" />
        </mxCell>
        <mxCell id="IxwNgQlCGh2BCHeYVvEQ-29" style="edgeStyle=orthogonalEdgeStyle;rounded=0;orthogonalLoop=1;jettySize=auto;html=1;exitX=0.5;exitY=0;exitDx=0;exitDy=0;entryX=0;entryY=0.5;entryDx=0;entryDy=0;" parent="1" source="IxwNgQlCGh2BCHeYVvEQ-27" target="IxwNgQlCGh2BCHeYVvEQ-21" edge="1">
          <mxGeometry relative="1" as="geometry">
            <mxPoint x="350" y="1180" as="targetPoint" />
            <Array as="points">
              <mxPoint x="250" y="1180" />
            </Array>
          </mxGeometry>
        </mxCell>
        <mxCell id="IxwNgQlCGh2BCHeYVvEQ-27" value="i += 1" style="rounded=0;whiteSpace=wrap;html=1;" parent="1" vertex="1">
          <mxGeometry x="190" y="1280" width="120" height="60" as="geometry" />
        </mxCell>
        <mxCell id="IxwNgQlCGh2BCHeYVvEQ-30" value="end" style="rounded=1;whiteSpace=wrap;html=1;arcSize=48;" parent="1" vertex="1">
          <mxGeometry x="512" y="1300" width="109" height="40" as="geometry" />
        </mxCell>
        <mxCell id="DjggumCJlK1GswqJNU6B-1" value="if" style="text;html=1;strokeColor=none;fillColor=none;align=center;verticalAlign=middle;whiteSpace=wrap;rounded=0;" parent="1" vertex="1">
          <mxGeometry x="391" y="1110" width="60" height="30" as="geometry" />
        </mxCell>
        <mxCell id="DjggumCJlK1GswqJNU6B-2" value="true" style="text;html=1;strokeColor=none;fillColor=none;align=center;verticalAlign=middle;whiteSpace=wrap;rounded=0;" parent="1" vertex="1">
          <mxGeometry x="440" y="1160" width="60" height="30" as="geometry" />
        </mxCell>
        <mxCell id="DjggumCJlK1GswqJNU6B-3" value="false" style="text;html=1;strokeColor=none;fillColor=none;align=center;verticalAlign=middle;whiteSpace=wrap;rounded=0;" parent="1" vertex="1">
          <mxGeometry x="394" y="1220" width="60" height="30" as="geometry" />
        </mxCell>
        <mxCell id="DjggumCJlK1GswqJNU6B-4" value="if" style="text;html=1;strokeColor=none;fillColor=none;align=center;verticalAlign=middle;whiteSpace=wrap;rounded=0;" parent="1" vertex="1">
          <mxGeometry x="391" y="810" width="60" height="30" as="geometry" />
        </mxCell>
        <mxCell id="DjggumCJlK1GswqJNU6B-5" value="true" style="text;html=1;strokeColor=none;fillColor=none;align=center;verticalAlign=middle;whiteSpace=wrap;rounded=0;" parent="1" vertex="1">
          <mxGeometry x="451" y="850" width="60" height="30" as="geometry" />
        </mxCell>
        <mxCell id="DjggumCJlK1GswqJNU6B-7" value="false" style="text;html=1;strokeColor=none;fillColor=none;align=center;verticalAlign=middle;whiteSpace=wrap;rounded=0;" parent="1" vertex="1">
          <mxGeometry x="397.5" y="910" width="60" height="30" as="geometry" />
        </mxCell>
        <mxCell id="DjggumCJlK1GswqJNU6B-9" value="if" style="text;html=1;strokeColor=none;fillColor=none;align=center;verticalAlign=middle;whiteSpace=wrap;rounded=0;" parent="1" vertex="1">
          <mxGeometry x="397.5" y="-300" width="60" height="30" as="geometry" />
        </mxCell>
      </root>
    </mxGraphModel>
  </diagram>
  <diagram id="JK3p9M_OLdvlHj67Pd4L" name="Страница 3">
    <mxGraphModel dx="868" dy="1616" grid="1" gridSize="10" guides="1" tooltips="1" connect="1" arrows="1" fold="1" page="1" pageScale="1" pageWidth="827" pageHeight="1169" math="0" shadow="0">
      <root>
        <mxCell id="0" />
        <mxCell id="1" parent="0" />
        <mxCell id="KYGXm3NSMx-RjJjodPN0-1" style="edgeStyle=orthogonalEdgeStyle;rounded=0;orthogonalLoop=1;jettySize=auto;html=1;exitX=0.5;exitY=1;exitDx=0;exitDy=0;" edge="1" parent="1" source="lVwICp2-UjSmGpzbY4JP-1" target="KYGXm3NSMx-RjJjodPN0-2">
          <mxGeometry relative="1" as="geometry">
            <mxPoint x="414" y="-240" as="targetPoint" />
          </mxGeometry>
        </mxCell>
        <mxCell id="lVwICp2-UjSmGpzbY4JP-1" value="start" style="rounded=1;whiteSpace=wrap;html=1;arcSize=50;" vertex="1" parent="1">
          <mxGeometry x="356" y="-310" width="116" height="30" as="geometry" />
        </mxCell>
        <mxCell id="lVwICp2-UjSmGpzbY4JP-4" value="" style="edgeStyle=orthogonalEdgeStyle;rounded=0;orthogonalLoop=1;jettySize=auto;html=1;" edge="1" parent="1" source="lVwICp2-UjSmGpzbY4JP-2" target="lVwICp2-UjSmGpzbY4JP-3">
          <mxGeometry relative="1" as="geometry" />
        </mxCell>
        <mxCell id="lVwICp2-UjSmGpzbY4JP-2" value="quick" style="shape=umlActor;verticalLabelPosition=bottom;verticalAlign=top;html=1;outlineConnect=0;" vertex="1" parent="1">
          <mxGeometry x="90" y="-420" width="30" height="60" as="geometry" />
        </mxCell>
        <mxCell id="lVwICp2-UjSmGpzbY4JP-6" style="edgeStyle=orthogonalEdgeStyle;rounded=0;orthogonalLoop=1;jettySize=auto;html=1;exitX=0.5;exitY=0.5;exitDx=0;exitDy=0;exitPerimeter=0;" edge="1" parent="1" source="lVwICp2-UjSmGpzbY4JP-3">
          <mxGeometry relative="1" as="geometry">
            <mxPoint x="730" y="-390" as="targetPoint" />
          </mxGeometry>
        </mxCell>
        <mxCell id="lVwICp2-UjSmGpzbY4JP-3" value="slow" style="shape=umlActor;verticalLabelPosition=bottom;verticalAlign=top;html=1;outlineConnect=0;" vertex="1" parent="1">
          <mxGeometry x="384" y="-420" width="30" height="60" as="geometry" />
        </mxCell>
        <mxCell id="lVwICp2-UjSmGpzbY4JP-7" value="" style="verticalLabelPosition=bottom;verticalAlign=top;html=1;shape=mxgraph.basic.partConcEllipse;startAngle=0.25;endAngle=0.1536245735243501;arcWidth=0.6;rotation=15;" vertex="1" parent="1">
          <mxGeometry x="130" y="-390" width="30" height="30" as="geometry" />
        </mxCell>
        <mxCell id="lVwICp2-UjSmGpzbY4JP-8" value="" style="endArrow=classic;startArrow=classic;html=1;rounded=0;exitX=0.94;exitY=0.21;exitDx=0;exitDy=0;exitPerimeter=0;" edge="1" parent="1" source="lVwICp2-UjSmGpzbY4JP-7">
          <mxGeometry width="50" height="50" relative="1" as="geometry">
            <mxPoint x="390" y="-180" as="sourcePoint" />
            <mxPoint x="380" y="-380" as="targetPoint" />
          </mxGeometry>
        </mxCell>
        <mxCell id="lVwICp2-UjSmGpzbY4JP-10" value="dog" style="text;html=1;strokeColor=none;fillColor=none;align=center;verticalAlign=middle;whiteSpace=wrap;rounded=0;" vertex="1" parent="1">
          <mxGeometry x="115" y="-360" width="60" height="20" as="geometry" />
        </mxCell>
        <mxCell id="lVwICp2-UjSmGpzbY4JP-11" value="" style="endArrow=none;dashed=1;html=1;rounded=0;" edge="1" parent="1">
          <mxGeometry width="50" height="50" relative="1" as="geometry">
            <mxPoint x="620" y="-370" as="sourcePoint" />
            <mxPoint x="620" y="-420" as="targetPoint" />
          </mxGeometry>
        </mxCell>
        <mxCell id="lVwICp2-UjSmGpzbY4JP-12" value="&lt;div&gt;meet&lt;/div&gt;" style="text;html=1;strokeColor=none;fillColor=none;align=center;verticalAlign=middle;whiteSpace=wrap;rounded=0;" vertex="1" parent="1">
          <mxGeometry x="590" y="-370" width="60" height="30" as="geometry" />
        </mxCell>
        <mxCell id="tFNtwaN6Or-9EjMfaqsW-2" value="" style="edgeStyle=orthogonalEdgeStyle;rounded=0;orthogonalLoop=1;jettySize=auto;html=1;" edge="1" parent="1" source="KYGXm3NSMx-RjJjodPN0-2">
          <mxGeometry relative="1" as="geometry">
            <mxPoint x="414" y="-70" as="targetPoint" />
          </mxGeometry>
        </mxCell>
        <mxCell id="KYGXm3NSMx-RjJjodPN0-2" value="&lt;div&gt;speedQ = 2&lt;/div&gt;&lt;div&gt;speedS = 1&lt;/div&gt;&lt;div&gt;speedD =4&lt;br&gt;&lt;/div&gt;&lt;div&gt;&lt;br&gt;&lt;/div&gt;&lt;div&gt;distance = 10&lt;/div&gt;&lt;div&gt;dogDistance = distance&lt;br&gt;&lt;/div&gt;&lt;div&gt;dogCounter = 0&lt;br&gt;&lt;/div&gt;" style="shape=parallelogram;perimeter=parallelogramPerimeter;whiteSpace=wrap;html=1;fixedSize=1;" vertex="1" parent="1">
          <mxGeometry x="294" y="-240" width="240" height="110" as="geometry" />
        </mxCell>
        <mxCell id="tFNtwaN6Or-9EjMfaqsW-8" value="" style="edgeStyle=orthogonalEdgeStyle;rounded=0;orthogonalLoop=1;jettySize=auto;html=1;" edge="1" parent="1" source="tFNtwaN6Or-9EjMfaqsW-6" target="tFNtwaN6Or-9EjMfaqsW-7">
          <mxGeometry relative="1" as="geometry" />
        </mxCell>
        <mxCell id="tFNtwaN6Or-9EjMfaqsW-9" style="edgeStyle=orthogonalEdgeStyle;rounded=0;orthogonalLoop=1;jettySize=auto;html=1;exitX=1;exitY=0.5;exitDx=0;exitDy=0;" edge="1" parent="1" source="tFNtwaN6Or-9EjMfaqsW-6">
          <mxGeometry relative="1" as="geometry">
            <mxPoint x="550" y="-30" as="targetPoint" />
          </mxGeometry>
        </mxCell>
        <mxCell id="tFNtwaN6Or-9EjMfaqsW-11" value="" style="edgeStyle=orthogonalEdgeStyle;rounded=0;orthogonalLoop=1;jettySize=auto;html=1;" edge="1" parent="1" source="tFNtwaN6Or-9EjMfaqsW-6" target="tFNtwaN6Or-9EjMfaqsW-10">
          <mxGeometry relative="1" as="geometry" />
        </mxCell>
        <mxCell id="tFNtwaN6Or-9EjMfaqsW-6" value="distance == 0" style="rhombus;whiteSpace=wrap;html=1;" vertex="1" parent="1">
          <mxGeometry x="374" y="-70" width="80" height="80" as="geometry" />
        </mxCell>
        <mxCell id="tFNtwaN6Or-9EjMfaqsW-33" style="edgeStyle=orthogonalEdgeStyle;rounded=0;orthogonalLoop=1;jettySize=auto;html=1;exitX=0.5;exitY=1;exitDx=0;exitDy=0;entryX=0.5;entryY=0;entryDx=0;entryDy=0;" edge="1" parent="1" source="tFNtwaN6Or-9EjMfaqsW-7" target="tFNtwaN6Or-9EjMfaqsW-32">
          <mxGeometry relative="1" as="geometry" />
        </mxCell>
        <mxCell id="tFNtwaN6Or-9EjMfaqsW-7" value="&lt;div&gt;# произошла встреча&lt;/div&gt;" style="whiteSpace=wrap;html=1;" vertex="1" parent="1">
          <mxGeometry x="550" y="-60" width="164" height="60" as="geometry" />
        </mxCell>
        <mxCell id="tFNtwaN6Or-9EjMfaqsW-13" value="" style="edgeStyle=orthogonalEdgeStyle;rounded=0;orthogonalLoop=1;jettySize=auto;html=1;entryX=0.5;entryY=0;entryDx=0;entryDy=0;" edge="1" parent="1" source="tFNtwaN6Or-9EjMfaqsW-10" target="tFNtwaN6Or-9EjMfaqsW-14">
          <mxGeometry relative="1" as="geometry">
            <mxPoint x="414" y="140" as="targetPoint" />
          </mxGeometry>
        </mxCell>
        <mxCell id="tFNtwaN6Or-9EjMfaqsW-10" value="&lt;div&gt;distance -= speedQ&lt;br&gt;&lt;/div&gt;&lt;div&gt;distance += speedS&lt;/div&gt;&lt;div&gt;&lt;div&gt;dogDistance -= speedQ&lt;br&gt;&lt;/div&gt;&lt;div&gt;dogDistance += speedS&lt;/div&gt;&lt;/div&gt;" style="whiteSpace=wrap;html=1;" vertex="1" parent="1">
          <mxGeometry x="339" y="60" width="150" height="60" as="geometry" />
        </mxCell>
        <mxCell id="tFNtwaN6Or-9EjMfaqsW-17" style="edgeStyle=orthogonalEdgeStyle;rounded=0;orthogonalLoop=1;jettySize=auto;html=1;exitX=0;exitY=1;exitDx=0;exitDy=0;entryX=0.5;entryY=0;entryDx=0;entryDy=0;" edge="1" parent="1" source="tFNtwaN6Or-9EjMfaqsW-14" target="tFNtwaN6Or-9EjMfaqsW-15">
          <mxGeometry relative="1" as="geometry">
            <Array as="points">
              <mxPoint x="384" y="220" />
              <mxPoint x="294" y="220" />
            </Array>
          </mxGeometry>
        </mxCell>
        <mxCell id="tFNtwaN6Or-9EjMfaqsW-19" style="edgeStyle=orthogonalEdgeStyle;rounded=0;orthogonalLoop=1;jettySize=auto;html=1;exitX=1;exitY=1;exitDx=0;exitDy=0;entryX=0.5;entryY=0;entryDx=0;entryDy=0;" edge="1" parent="1" source="tFNtwaN6Or-9EjMfaqsW-14" target="tFNtwaN6Or-9EjMfaqsW-18">
          <mxGeometry relative="1" as="geometry">
            <Array as="points">
              <mxPoint x="444" y="220" />
              <mxPoint x="540" y="220" />
            </Array>
          </mxGeometry>
        </mxCell>
        <mxCell id="tFNtwaN6Or-9EjMfaqsW-14" value="dogDistance == 0" style="rhombus;whiteSpace=wrap;html=1;" vertex="1" parent="1">
          <mxGeometry x="354" y="150" width="120" height="80" as="geometry" />
        </mxCell>
        <mxCell id="tFNtwaN6Or-9EjMfaqsW-24" style="edgeStyle=orthogonalEdgeStyle;rounded=0;orthogonalLoop=1;jettySize=auto;html=1;exitX=0;exitY=0.5;exitDx=0;exitDy=0;entryX=0;entryY=0.5;entryDx=0;entryDy=0;" edge="1" parent="1" source="tFNtwaN6Or-9EjMfaqsW-15" target="tFNtwaN6Or-9EjMfaqsW-6">
          <mxGeometry relative="1" as="geometry" />
        </mxCell>
        <mxCell id="tFNtwaN6Or-9EjMfaqsW-15" value="dogDistance -= 4" style="whiteSpace=wrap;html=1;" vertex="1" parent="1">
          <mxGeometry x="234" y="260" width="120" height="60" as="geometry" />
        </mxCell>
        <mxCell id="tFNtwaN6Or-9EjMfaqsW-23" style="edgeStyle=orthogonalEdgeStyle;rounded=0;orthogonalLoop=1;jettySize=auto;html=1;exitX=0;exitY=0.5;exitDx=0;exitDy=0;entryX=1;entryY=0.5;entryDx=0;entryDy=0;" edge="1" parent="1" source="tFNtwaN6Or-9EjMfaqsW-18" target="tFNtwaN6Or-9EjMfaqsW-15">
          <mxGeometry relative="1" as="geometry" />
        </mxCell>
        <mxCell id="tFNtwaN6Or-9EjMfaqsW-18" value="&lt;div&gt;dogCounter += 1&lt;/div&gt;&lt;div&gt;dogDistance =distance&lt;br&gt;&lt;/div&gt;" style="rounded=0;whiteSpace=wrap;html=1;" vertex="1" parent="1">
          <mxGeometry x="472" y="260" width="136" height="60" as="geometry" />
        </mxCell>
        <mxCell id="tFNtwaN6Or-9EjMfaqsW-25" value="true" style="text;html=1;strokeColor=none;fillColor=none;align=center;verticalAlign=middle;whiteSpace=wrap;rounded=0;" vertex="1" parent="1">
          <mxGeometry x="454" y="-50" width="60" height="30" as="geometry" />
        </mxCell>
        <mxCell id="tFNtwaN6Or-9EjMfaqsW-27" value="false" style="text;html=1;strokeColor=none;fillColor=none;align=center;verticalAlign=middle;whiteSpace=wrap;rounded=0;" vertex="1" parent="1">
          <mxGeometry x="400" y="10" width="60" height="30" as="geometry" />
        </mxCell>
        <mxCell id="tFNtwaN6Or-9EjMfaqsW-28" value="if" style="text;html=1;strokeColor=none;fillColor=none;align=center;verticalAlign=middle;whiteSpace=wrap;rounded=0;" vertex="1" parent="1">
          <mxGeometry x="394" y="-120" width="60" height="30" as="geometry" />
        </mxCell>
        <mxCell id="tFNtwaN6Or-9EjMfaqsW-29" value="if" style="text;html=1;strokeColor=none;fillColor=none;align=center;verticalAlign=middle;whiteSpace=wrap;rounded=0;" vertex="1" parent="1">
          <mxGeometry x="394" y="120" width="60" height="30" as="geometry" />
        </mxCell>
        <mxCell id="tFNtwaN6Or-9EjMfaqsW-30" value="true" style="text;html=1;strokeColor=none;fillColor=none;align=center;verticalAlign=middle;whiteSpace=wrap;rounded=0;" vertex="1" parent="1">
          <mxGeometry x="470" y="200" width="60" height="30" as="geometry" />
        </mxCell>
        <mxCell id="tFNtwaN6Or-9EjMfaqsW-31" value="false" style="text;html=1;strokeColor=none;fillColor=none;align=center;verticalAlign=middle;whiteSpace=wrap;rounded=0;" vertex="1" parent="1">
          <mxGeometry x="294" y="200" width="60" height="30" as="geometry" />
        </mxCell>
        <mxCell id="tFNtwaN6Or-9EjMfaqsW-32" value="&lt;div&gt;собака совершила dogCounter+1 перебежек&lt;/div&gt;" style="shape=document;whiteSpace=wrap;html=1;boundedLbl=1;" vertex="1" parent="1">
          <mxGeometry x="547" y="60" width="170" height="60" as="geometry" />
        </mxCell>
      </root>
    </mxGraphModel>
  </diagram>
</mxfile>
